# Blender v2.81 (sub 16) OBJ File: ''
# www.blender.org
mtllib 6088462_normals.mtl
o Cube
v 1.000000 1.000000 -1.000000
v 1.000000 -1.000000 -1.000000
v 1.000000 1.000000 1.000000
v 1.000000 -1.000000 1.000000
v -1.000000 1.000000 -1.000000
v -1.000000 -1.000000 -1.000000
v -1.000000 1.000000 1.000000
v -1.000000 -1.000000 1.000000
vt 0.625000 0.500000
vt 0.875000 0.500000
vt 0.875000 0.750000
vt 0.625000 0.750000
vt 0.375000 0.750000
vt 0.625000 1.000000
vt 0.375000 1.000000
vt 0.375000 0.000000
vt 0.625000 0.000000
vt 0.625000 0.250000
vt 0.375000 0.250000
vt 0.125000 0.500000
vt 0.375000 0.500000
vt 0.125000 0.750000
vn 0.0000 1.0000 0.0000
vn 0.0000 0.0000 1.0000
vn -1.0000 0.0000 0.0000
vn 0.0000 -1.0000 0.0000
vn 1.0000 0.0000 0.0000
vn 0.0000 0.0000 -1.0000
usemtl Material
s off
f 1/1/1 5/2/1 7/3/1 3/4/1
f 4/5/2 3/4/2 7/6/2 8/7/2
f 8/8/3 7/9/3 5/10/3 6/11/3
f 6/12/4 2/13/4 4/5/4 8/14/4
f 2/13/5 1/1/5 3/4/5 4/5/5
f 6/11/6 5/10/6 1/1/6 2/13/6
o 6088462
v 4.486650 7.581767 0.000000
v -4.409350 -7.588233 -0.000000
v 5.887650 -6.565234 -0.000000
v -5.968350 6.496767 0.000000
v 3.973073 -6.755446 8.559599
v 1.732436 -6.978052 11.106376
v 5.343504 -6.619295 8.560350
v 5.887650 -6.565234 6.383431
v 5.343504 -6.619295 8.560350
v 5.887650 -6.565234 8.176695
v 3.973073 -6.755446 8.559599
v 0.741043 -7.076546 11.805368
v 3.973073 -6.755446 8.559599
v -3.797714 -7.527468 8.555335
v 1.732436 -6.978052 11.106376
v 5.887650 -6.565234 -0.000000
v 3.973073 -6.755446 8.559599
v 5.887650 -6.565234 6.383431
v -3.797714 -7.527468 8.555335
v -4.409350 -7.588234 8.117365
v -4.409350 -7.588233 -0.000000
v 0.971980 -7.053602 11.970734
v 1.732436 -6.978052 11.106376
v 0.741043 -7.076546 11.805368
v -5.968350 6.496766 8.131984
v -5.873832 5.642828 8.131097
v -5.968350 6.496767 4.320803
v -5.968350 6.496767 4.320803
v -4.409350 -7.588233 -0.000000
v -5.968350 6.496767 0.000000
v -4.409350 -7.588234 8.117365
v -5.873832 5.642828 8.131097
v -0.765986 7.036657 11.859031
v 0.201894 7.137102 11.176312
v -0.540525 7.060055 12.020555
v 4.486650 7.581767 4.273503
v 2.541316 7.379883 8.516041
v 4.486650 7.581766 6.303907
v -5.438231 6.551781 8.511768
v -5.968350 6.496766 8.131984
v -5.968350 6.496767 4.320803
v 4.486650 7.581767 4.273503
v -5.968350 6.496767 0.000000
v 4.486650 7.581767 0.000000
v -5.968350 6.496767 4.320803
v -0.765986 7.036657 11.859031
v 2.541316 7.379883 8.516041
v -5.438231 6.551781 8.511768
v 0.201894 7.137102 11.176312
v 5.887650 -6.565234 6.383431
v 4.572907 6.710760 8.155354
v 5.887650 -6.565234 8.176695
v 4.531824 7.125610 6.306471
v 4.486650 7.581767 4.273503
v 4.531824 7.125610 6.306471
v 4.486650 7.581766 6.303907
v 4.486650 7.581767 4.273503
v 5.887650 -6.565234 -0.000000
v 4.486650 7.581767 0.000000
v 5.887650 -6.565234 6.383431
v 4.531824 7.125610 6.306471
v 4.572907 6.710760 8.155354
v 5.343504 -6.619295 8.560350
v 5.887650 -6.565234 8.176695
v 4.064554 6.575933 8.519739
v 1.732436 -6.978052 11.106376
v 4.064554 6.575933 8.519739
v 5.343504 -6.619295 8.560350
v 0.369022 5.595793 11.168676
v 2.541316 7.379883 8.516041
v 0.369022 5.595793 11.168676
v 0.201894 7.137102 11.176312
v 2.637582 6.429482 8.518970
v 4.486650 7.581766 6.303907
v 2.637582 6.429482 8.518970
v 4.531824 7.125610 6.306471
v 2.541316 7.379883 8.516041
v 1.732436 -6.978052 11.106376
v -0.355088 5.329685 12.014446
v 0.971980 -7.053602 11.970734
v 0.369022 5.595793 11.168676
v -0.540525 7.060055 12.020555
v 0.369022 5.595793 11.168676
v 0.201894 7.137102 11.176312
v -0.355088 5.329685 12.014446
v 4.064554 6.575933 8.519739
v 0.369022 5.595793 11.168676
v 2.637582 6.429482 8.518970
v 4.572907 6.710760 8.155354
v 2.637582 6.429482 8.518970
v 4.531824 7.125610 6.306471
v 4.064554 6.575933 8.519739
v -5.438231 6.551781 8.511768
v -5.873832 5.642828 8.131097
v -5.968350 6.496766 8.131984
v -5.328716 5.611897 8.514677
v -5.873832 5.642828 8.131097
v -3.797714 -7.527468 8.555335
v -4.409350 -7.588234 8.117365
v -5.328716 5.611897 8.514677
v -5.438231 6.551781 8.511768
v -0.585106 5.342736 11.852590
v -0.765986 7.036657 11.859031
v -5.328716 5.611897 8.514677
v 0.741043 -7.076546 11.805368
v -5.328716 5.611897 8.514677
v -3.797714 -7.527468 8.555335
v -0.585106 5.342736 11.852590
v -0.765986 7.036657 11.859031
v -0.355088 5.329685 12.014446
v -0.540525 7.060055 12.020555
v -0.585106 5.342736 11.852590
v 0.741043 -7.076546 11.805368
v -0.355088 5.329685 12.014446
v 0.971980 -7.053602 11.970734
v -0.585106 5.342736 11.852590
vn 0.0000 -0.0000 1.0000
vn 0.0989 -0.9951 0.0000
vn -0.9939 -0.1100 -0.0000
vn -0.1032 0.9947 -0.0000
vn 0.9951 0.0985 0.0000
vn 0.5714 0.0579 0.8186
vn 0.7452 0.0775 0.6624
vn 0.0997 -0.9704 -0.2200
vn -0.0997 0.9704 0.2200
vn -0.5767 -0.0647 0.8144
usemtl Default_OBJ
s off
f 9//7 10//7 11//7
f 9//7 12//7 10//7
f 13//8 15//8 14//8
f 16//8 18//8 17//8
f 16//8 17//8 19//8
f 20//8 22//8 21//8
f 20//8 21//8 23//8
f 24//8 26//8 25//8
f 24//8 25//8 27//8
f 24//8 27//8 28//8
f 24//8 28//8 29//8
f 30//8 32//8 31//8
f 33//9 35//9 34//9
f 36//9 38//9 37//9
f 36//9 37//9 39//9
f 36//9 39//9 40//9
f 41//10 43//10 42//10
f 44//10 45//10 46//10
f 44//10 47//10 45//10
f 44//10 48//10 47//10
f 44//10 49//10 48//10
f 50//10 52//10 51//10
f 50//10 51//10 53//10
f 54//10 55//10 56//10
f 54//10 57//10 55//10
f 58//11 59//11 60//11
f 58//11 61//11 59//11
f 62//11 64//11 63//11
f 65//11 66//11 67//11
f 65//11 68//11 66//11
f 65//11 69//11 68//11
f 70//12 71//12 72//12
f 70//12 73//12 71//12
f 74//12 76//12 75//12
f 74//12 75//12 77//12
f 78//13 80//13 79//13
f 78//13 79//13 81//13
f 82//13 83//13 84//13
f 82//13 85//13 83//13
f 86//13 87//13 88//13
f 86//13 89//13 87//13
f 90//13 91//13 92//13
f 90//13 93//13 91//13
f 94//14 95//14 96//14
f 97//15 99//15 98//15
f 97//15 98//15 100//15
f 101//16 103//16 102//16
f 101//16 102//16 104//16
f 105//16 107//16 106//16
f 105//16 106//16 108//16
f 109//16 110//16 111//16
f 109//16 112//16 110//16
f 113//16 114//16 115//16
f 113//16 116//16 114//16
f 117//16 118//16 119//16
f 117//16 120//16 118//16
f 121//16 123//16 122//16
f 121//16 122//16 124//16
